<svg xmlns="http://www.w3.org/2000/svg" xmlns:svg="http://www.w3.org/2000/svg" id="svg2" width="869.446" height="476.915" version="1.1" viewBox="0 0 869.446 476.915" xml:space="preserve"><metadata id="metadata8"/><g id="g10" transform="matrix(1.3333333,0,0,-1.3333333,-231.95439,903.78971)"><g id="g12" transform="translate(458.6108,490.9463)"><path style="fill:#28b7ea;fill-opacity:1;fill-rule:evenodd;stroke:none" id="path14" d="m 0,0 -28.692,-49.696 -32.81,56.829 -34.596,59.921 34.596,59.921 32.809,56.828 L 0,134.106 -18.464,102.126 -38.713,67.054 -18.464,31.98 Z"/></g><g id="g16" transform="translate(580.1064,554.9072)"><path style="fill:#1a243c;fill-opacity:1;fill-rule:evenodd;stroke:none" id="path18" d="m 0,0 h 57.384 l -32.81,-56.828 -34.595,-59.921 h -69.191 -65.619 l 28.693,49.696 h 36.926 40.499 l 20.249,35.073 z"/></g><g id="g20" transform="translate(570.085,677.8423)"><path style="fill:#3090ce;fill-opacity:1;fill-rule:evenodd;stroke:none" id="path22" d="m 0,0 34.596,-59.921 32.81,-56.829 H 10.021 l -18.463,31.98 -20.249,35.074 H -69.19 -106.118 L -134.81,0 h 65.62 z"/></g><g id="g24" transform="translate(463.9668,621.96)"><path style="fill:#1a243c;fill-opacity:1;fill-rule:evenodd;stroke:none" id="path26" d="M 0,0 36.928,-63.96 0,-127.92 -36.927,-63.96 Z"/></g><g id="g28" transform="translate(463.9668,494.04)"><path style="fill:#3090ce;fill-opacity:1;fill-rule:evenodd;stroke:none" id="path30" d="m 0,0 36.928,63.96 h 73.855 L 73.855,0 Z"/></g><g id="g32" transform="translate(574.75,558)"><path style="fill:#28b7ea;fill-opacity:1;fill-rule:evenodd;stroke:none" id="path34" d="m 0,0 -73.855,-0.001 -36.927,63.961 73.854,-10e-4 z"/></g><g id="g36" transform="translate(173.9658,320.1562)"><path style="fill:#1a243c;fill-opacity:1;fill-rule:nonzero;stroke:none" id="path38" d="M 0,0 H 35.538 V 8.923 H 8.846 V 22.23 h 26.692 v 8.846 H 8.846 v 13.385 h 26.692 v 8.923 H 0 Z"/></g><g id="g40" transform="translate(265.7646,373.54)"><path style="fill:#1a243c;fill-opacity:1;fill-rule:nonzero;stroke:none" id="path42" d="m 0,0 h -8.846 v -53.384 h 35.538 v 8.923 H 0 Z"/></g><g id="g44" transform="translate(339.8799,320.1562)"><path style="fill:#1a243c;fill-opacity:1;fill-rule:nonzero;stroke:none" id="path46" d="M 0,0 H 35.538 V 8.923 H 8.846 V 22.23 h 26.692 v 8.846 H 8.846 v 13.385 h 26.692 v 8.923 H 0 Z"/></g><g id="g48" transform="translate(422.833,373.54)"><path style="fill:#1a243c;fill-opacity:1;fill-rule:nonzero;stroke:none" id="path50" d="m 0,0 v -53.384 h 8.846 v 31.923 l 17.846,-17.846 17.769,17.846 v -31.923 h 9 V 0 L 26.692,-26.691 Z"/></g><g id="g52" transform="translate(523.7158,320.1562)"><path style="fill:#1a243c;fill-opacity:1;fill-rule:nonzero;stroke:none" id="path54" d="M 0,0 H 35.538 V 8.923 H 8.846 V 22.23 h 26.692 v 8.846 H 8.846 v 13.385 h 26.692 v 8.923 H 0 Z"/></g><g id="g56" transform="translate(642.207,341.6172)"><path style="fill:#1a243c;fill-opacity:1;fill-rule:nonzero;stroke:none" id="path58" d="m 0,0 -35.538,32 v -53.384 h 8.846 v 31.923 l 35.615,-32 v 0.077 0.077 L 8.923,32 H 0 Z"/></g><g id="g60" transform="translate(698.5596,364.6172)"><path style="fill:#1a243c;fill-opacity:1;fill-rule:nonzero;stroke:none" id="path62" d="m 0,0 h 17.846 v -44.461 h 8.923 V 0 H 44.538 V 8.923 H 0 Z"/></g><g id="g64" transform="translate(799.3584,329.0791)"><path style="fill:#1a243c;fill-opacity:1;fill-rule:nonzero;stroke:none" id="path66" d="M 0,0 V 44.461 H -8.846 V -8.923 H 26.692 V 0 Z"/></g></g></svg>