<svg xmlns="http://www.w3.org/2000/svg" xmlns:svg="http://www.w3.org/2000/svg" id="svg2" width="494.067" height="143.013" version="1.1" viewBox="0 0 494.067 143.013" xml:space="preserve"><metadata id="metadata8"/><g id="g10" transform="matrix(1.3333333,0,0,-1.3333333,0,143.01333)"><g id="g12" transform="scale(0.1)"><path id="path14" d="M 87,677.801 0,1072.6 536.098,645.402 626.699,764 l 116,22.801 L 869,811.699 742.699,617.602 V 356.699 L 97.4023,0 274.301,283.098 441.199,384.797 267.5,343.305 118.301,595.301 428.203,510.598" style="fill:#4249a6;fill-opacity:1;fill-rule:nonzero;stroke:none"/><path id="path16" d="m 1579.67,787.07 v -0.297 c -4.3,-8.796 -13.7,-28.5 -26.4,-54.796 h -251.8 v -130 h 189.7 c -8.5,-17.606 -17,-35.504 -25.4,-53.102 h -164.3 V 354.379 h -55.7 l -0.1,433.094 334,-0.403" style="fill:#4249a6;fill-opacity:1;fill-rule:nonzero;stroke:none"/><path id="path18" d="m 3054.44,788.59 c -0.02,-7.442 -0.02,-16.445 -0.02,-27.41 V 477.773 L 2749.73,798.59 v 0 -444.02 H 2803 V 661.844 L 3107.69,344.57 v 0 416.61 c 0,11.179 0,20.136 -0.02,27.41 h -53.23" style="fill:#4249a6;fill-opacity:1;fill-rule:nonzero;stroke:none"/><path id="path20" d="M 2479.96,787.789 V 542.555 c 0,-92.59 -42.97,-136.75 -124.72,-136.75 -81.74,0 -124.72,44.16 -124.72,136.75 v 245.234 h -52.78 V 539.5 c 0,-121.727 62.46,-185.445 177.5,-185.445 115.03,0 177.49,63.718 177.49,185.445 v 248.289 h -52.77" style="fill:#4249a6;fill-opacity:1;fill-rule:nonzero;stroke:none"/><path id="path22" d="m 1825.49,791.828 c 0,0 -210.12,-437.461 -207.53,-437.461 h 59.58 l 147.95,321.578 147.95,-321.578 h 59.58 c 2.58,0 -207.53,437.461 -207.53,437.461" style="fill:#4249a6;fill-opacity:1;fill-rule:nonzero;stroke:none"/><path id="path24" d="m 3497.99,791.828 c 0,0 -210.12,-437.461 -207.53,-437.461 h 59.58 l 147.95,321.578 147.95,-321.578 h 59.58 c 2.58,0 -207.53,437.461 -207.53,437.461" style="fill:#4249a6;fill-opacity:1;fill-rule:nonzero;stroke:none"/></g></g></svg>