<svg xmlns="http://www.w3.org/2000/svg" xmlns:xlink="http://www.w3.org/1999/xlink" id="Layer_1" x="0" y="0" viewBox="0 0 400 245" xml:space="preserve" style="enable-background:new 0 0 400 245"><style type="text/css">.st0{fill:#4c83c3}</style><g><polygon points="398.3 53.5 332 53.5 336.1 42.1 398.3 42.1" class="st0"/><path d="M221.5,42.1l61.6,0l4,11.5c0,0-65.6,0-65.6,0C221.6,53.5,221.5,42.1,221.5,42.1z" class="st0"/><path d="M172.7,42.1c10.1,1,19,4.6,26.5,11.5c0,0-111.6,0-111.6,0c0,0,0-11.5,0-11.5L172.7,42.1z" class="st0"/><g><rect width="77.5" height="11.4" x="0" y="42.1" class="st0"/><path d="M38.8,47.8" class="st0"/></g><path d="M398.3,75h-73.9c0,0,4-11.4,4-11.4h69.9V75z" class="st0"/><polygon points="294.8 75 221.5 75 221.5 63.6 290.7 63.6" class="st0"/><path d="M207.8,63.6c1.5,3.8,3.2,7,3.2,11.4H87.6V63.6H207.8z" class="st0"/><g><rect width="77.5" height="11.4" x="0" y="63.6" class="st0"/><path d="M38.8,69.3" class="st0"/></g><polygon points="316.8 96.5 320.9 85.1 376.4 85.1 376.4 96.5" class="st0"/><polygon points="298.3 85.1 302.4 96.5 243.4 96.5 243.4 85.1" class="st0"/><path d="M212,85c0,3.9-0.5,8-1.6,11.4h-33.8V85H212z" class="st0"/><g><rect width="33.3" height="11.4" x="21.6" y="85.1" class="st0"/><path d="M38.3,90.8" class="st0"/></g><g><rect width="33.3" height="11.4" x="110" y="85" class="st0"/><path d="M126.6,90.8" class="st0"/></g><path d="M276.1,108.8c0,0,0,8.7,0,8.7h-32.8v-11.4h62.4l3.9,10.6c0,0,3.7-10.6,3.7-10.6h62.9v11.4h-32.6 c0,0,0-8.7,0-8.7l-3,8.7l-61.6,0L276.1,108.8z" class="st0"/><path d="M110,106.1h95.5v0c-2.1,3.8-5.9,8.4-9.5,11.4c0,0-86,0-86,0C110,117.5,110,106.1,110,106.1z" class="st0"/><g><rect width="33.3" height="11.4" x="21.6" y="106.1" class="st0"/><path d="M38.3,111.8" class="st0"/></g><g><rect width="32.6" height="11.4" x="343.8" y="127.6" class="st0"/><path d="M360.1,133.3" class="st0"/></g><path d="M276.1,127.6h-32.8v11.4c0,0,32.8,0,32.8,0C276.1,138.9,276.2,127.6,276.1,127.6z" class="st0"/><path d="M337.2,127.6c-0.1,0-3.8,11.4-4,11.4l-46.4,0c0,0-4.1-11.4-4.1-11.4H337.2z" class="st0"/><path d="M110,127.6h85.8c3.9,3.3,7.5,7.3,10.2,11.4c0.2,0-96.1,0-96.1,0C110,138.9,110,127.6,110,127.6z" class="st0"/><path d="M54.9,138.9v-11.4H21.7c0,0,0,11.4,0,11.4C21.7,138.9,54.9,138.9,54.9,138.9z" class="st0"/><g><rect width="32.6" height="11.4" x="343.8" y="149" class="st0"/><path d="M360.1,154.7" class="st0"/></g><g><rect width="32.8" height="11.4" x="243.4" y="149" class="st0"/><path d="M259.8,154.7" class="st0"/></g><path d="M325.6,160.4c0-0.1,4-11.4,4.1-11.4h-39.5c-0.1,0,4,11.4,4,11.4S325.6,160.5,325.6,160.4z" class="st0"/><path d="M110,160.4c0,0,0-11.4,0-11.4h33.8c0,0,0,11.4,0,11.4C143.7,160.4,110,160.4,110,160.4z" class="st0"/><path d="M210.8,149c1.6,3.4,1.8,7.5,2.1,11.4h-35.8V149H210.8z" class="st0"/><g><rect width="33.3" height="11.4" x="21.7" y="149" class="st0"/><path d="M38.3,154.7" class="st0"/></g><g><rect width="54.5" height="11.4" x="343.8" y="170" class="st0"/><path d="M371,175.7" class="st0"/></g><g><rect width="54.6" height="11.4" x="221.5" y="170" class="st0"/><path d="M248.8,175.7" class="st0"/></g><polygon points="318.2 181.4 301.6 181.4 297.6 170 322.1 170" class="st0"/><path d="M0,170v11.4h77.5c0,0,0-11.4,0-11.4C77.5,170-0.1,170,0,170z" class="st0"/><path d="M211.5,170c-0.8,3.8-1.6,8.3-4.3,11.4l-1,0H87.6V170H211.5z" class="st0"/><polygon points="310.7 202.9 309.2 202.9 305.3 191.5 314.7 191.5" class="st0"/><g><rect width="54.5" height="11.4" x="343.8" y="191.5" class="st0"/><path d="M371,197.2" class="st0"/></g><path d="M87.6,202.9v-11.4c0,0,111.9,0,112.2,0c-7.5,7.2-17.8,11.2-28.9,11.4L87.6,202.9" class="st0"/><g><rect width="54.6" height="11.4" x="221.5" y="191.5" class="st0"/><path d="M248.8,197.2" class="st0"/></g><path d="M77.5,191.5c0,0,0,11.4,0,11.4c0,0-77.4,0-77.5,0c0,0,0-11.4,0-11.4S77.4,191.6,77.5,191.5z" class="st0"/></g></svg>